<?xml version="1.0" encoding="UTF-8"?>
<svg id="_레이어_1" data-name="레이어 1" xmlns="http://www.w3.org/2000/svg" viewBox="0 0 738.73 355.4">
  <defs>
    <style>
      .cls-1 {
        fill: #231815;
      }
    </style>
  </defs>
  <path class="cls-1" d="M252.35,230.14c-22.44-15.76-40.07-35.23-52.41-57.86-12.36-22.68-19.79-49.21-22.07-78.88l1.04-16.69v-.19c.34-8.27,1.67-15.35,4.19-22.27l.03-.1c2.03-5.81,1.73-10.79-.91-14.8-3.95-5.99-11.33-7.24-17.34-7.65-20.3-1.38-52.72-2.54-70.77-2.54h-8.5v41.26c0,74.01-27.38,132.6-79.18,169.44C1.13,243.53,0,247.68,0,250.51c-.01,6.31,5.02,9.79,8.02,11.87l.52.36c17.76,12.64,39.63,30.85,48.44,43.05l4.63,6.41,6.73-4.16c26.85-16.59,49.24-39.51,66.71-68.24,14.63,24.72,33.45,46.11,56.08,63.75l6.83,5.32,5.19-6.93c9.38-12.51,30-36.96,47.72-49.23,4.98-3.45,7.51-7.49,7.52-12.02,0-2.36-.77-6.88-6.04-10.57Z"/>
  <path class="cls-1" d="M337.71,6.86h-.04c-21.23-1.42-51.56-2.18-69.33-2.18h-8.78l.28,8.77c1.47,45.81,1.01,260.34-.36,328.6l-.17,8.47,8.47.2c3.19.08,7.28.12,11.92.12,18.14,0,44.58-.67,57.26-2.74,9.8-1.51,15.32-8.46,14.76-18.59-2.15-38.96-1.41-253.28.35-277.16.71-9.25,1.38-16.31,3.55-22.8,2.01-6.02,1.66-11.12-1.03-15.15-3.98-5.96-11.53-7.16-16.86-7.54Z"/>
  <path class="cls-1" d="M738.73,83.35l-35.84.72c.31-15.93.66-29.25,1.25-36.37.73-9.13,1.41-16.11,3.59-22.94l.04-.14c.64-2.14,2.6-8.67-1.2-14.4-3.71-5.59-10.41-7-16.53-7.66-22.3-2.23-53.18-2.56-69.61-2.56h-8.78l.28,8.77c1.39,43.57,1.43,127.69.11,197.93-8.3-1.15-17.13-2-26.49-2.55,1.79-2.84,2.58-6.43,2.32-10.76-2.1-34.97-1.11-101.21,0-126.95.37-9.19,1.51-15.75,3.69-21.24,2.98-7.13,1.36-12.15-.52-15.1-3.1-4.85-8.98-7.47-17.49-7.77-3.57-.13-7.31-.26-11.15-.4-18.1-.66-38.62-1.4-52.15-1.4h-8.67l.73,35.97c-10.4.28-23.55.29-34.08.02.59-3.3,1.43-6.59,2.54-9.93,2.02-5.58,1.75-10.42-.81-14.39-3.93-6.08-11.61-7.3-17.06-7.69-20.4-1.43-48.16-2.18-65.04-2.18h-8.79l.29,8.78c1.44,43.11,1.44,107.24,0,175.94l-.18,8.47,8.47.21c3.16.08,7.32.12,12.04.12,16.78,0,40.76-.58,53.03-2.36,3.93-.51,6.74-1.96,8.74-3.7,8.7-.34,20.49-.44,31.19-.31-24.87,5.4-43.71,14.37-56.29,26.86-11.79,11.7-17.76,26.01-17.76,42.53,0,23.17,11.72,42.28,33.91,55.26,24.13,14.12,61,21.28,109.59,21.28s85.2-7.16,109.29-21.28c22.15-12.99,33.86-32.09,33.86-55.26s-11.73-41.49-33.93-54.22c-2.46-1.41-5.07-2.75-7.81-4.03,10.2-.43,19.68-1.1,25.88-2.11,9.8-1.51,15.32-8.46,14.75-18.64-.58-9.52-.92-21.92-1.24-36.89l35.82.72v-80.34ZM562.11,285.12c-16.79,0-29.02-.79-37.39-2.41-8.09-1.57-9.98-3.43-10.26-3.76,0,0,0,0,0,0,.55-.75,6.62-7.42,47.66-7.42,38.78,0,45.88,6.21,46.86,7.35-1.13,1.23-8.13,6.25-46.86,6.25ZM502.75,125.04l-.16,12.76c-11.07.23-25.63.08-36.9-.3-.02-3.74.03-7.48.08-11.15,0-.44.01-.87.02-1.31,11.11-.3,25.69-.3,36.96,0Z"/>
</svg>